<svg
xmlns="http://www.w3.org/2000/svg"
xmlns:se="http://svg-edit.googlecode.com"
xmlns:xlink="http://www.w3.org/1999/xlink"
xmlns:dc="http://purl.org/dc/elements/1.1/"
xmlns:cc="http://creativecommons.org/ns#"
xmlns:rdf="http://www.w3.org/1999/02/22-rdf-syntax-ns#"
xmlns:inkscape="http://www.inkscape.org/namespaces/inkscape"

viewBox="0 0 158 149" width="40" height="40" style="&#10; background-color: black;&#10;">
  <title>my vector image</title>
  <rect id="backgroundrect" width="100%" height="100%" x="0" y="0" stroke="none" />
  <g class="currentLayer">
    <title>Layer 1</title>
    <path fill="#4a90d6" fill-opacity="1" stroke="none" stroke-width="2" stroke-dasharray="none" stroke-linejoin="round" stroke-linecap="butt" stroke-dashoffset="" fill-rule="nonzero" opacity="1" marker-start="" marker-mid="" marker-end="" d="M0,74.3879328839333 C0,33.28962742319666 35.29484111424935,-6.352747104407253e-22 78.86871903307565,-6.352747104407253e-22 C122.44259695190198,-6.352747104407253e-22 157.73743806615133,33.28962742319666 157.73743806615133,74.3879328839333 C157.73743806615133,115.48623834466994 122.44259695190198,148.7758657678666 78.86871903307565,148.7758657678666 C35.29484111424935,148.7758657678666 0,115.48623834466994 0,74.3879328839333 z" id="svg_1" class=""/>
    <path fill="#d61b41" stroke="#ffffff" stroke-width="5" stroke-linejoin="round" stroke-dashoffset="" fill-rule="nonzero" marker-start="" marker-mid="" marker-end="" id="svg_16" d="M45.61987451761294,80.6645586131815 L94.83851912615731,80.29872828970969 L95.25476979657836,35.5793862116892 L104.62819991194746,35.94521653516104 L105.04446548438833,80.29872828970969 L151.34930324291545,79.93290451459137 L151.34930324291545,88.17079230681753 L104.62820736295734,88.5366226302894 L105.04446548438833,133.25596470830988 L95.25477724758827,133.25596470830988 L94.42226100472621,88.5366226302894 L45.61987451761294,88.90244640540772 L45.61987451761294,80.6645586131815 z" style="color: rgb(0, 0, 0);" class="" fill-opacity="1" stroke-opacity="1" transform="rotate(-62.964298248291016 98.48458862304689,84.41767120361328) "/>
    <path fill="#d61b41" stroke="#ffffff" stroke-width="2" stroke-linejoin="round" stroke-dashoffset="" fill-rule="nonzero" marker-start="" marker-mid="" marker-end="" d="M42.41685644230702,79.30917675137695 L94.52806209256127,78.9341172925098 L94.9687756567175,33.08659956488927 L104.89307869828244,33.461659023756454 L105.33380804024458,78.9341172925098 L154.35996351908457,78.55906454719755 L154.35996351908457,87.00477705194103 L104.89308658718542,87.37983651080819 L105.33380804024458,133.22735423842866 L94.96878354562043,133.22735423842866 L94.08734063950206,87.37983651080819 L42.41685644230702,87.75488925612044 L42.41685644230702,79.30917675137695 z" style="color: rgb(0, 0, 0);" class="" fill-opacity="1" stroke-opacity="1" id="svg_3" transform="rotate(-15.818963050842285 98.38838195800783,83.15695953369145) "/>
    <path fill="#ffffff" stroke="none" stroke-width="1" stroke-linejoin="round" stroke-dashoffset="" fill-rule="nonzero" marker-start="" marker-mid="" marker-end="" id="svg_8" d="M4.0131257499865285,69.43899198533092 L20.657572619690058,69.43899198533092 L25.800834779063052,52.60968113457761 L30.944099862960798,69.43899198533092 L47.588543808139036,69.43899198533092 L34.12292807256509,79.83995903487516 L39.266456363686245,96.66926988562878 L25.800834779063052,86.26801958475491 L12.335216118964212,96.66926988562878 L17.47874587234736,79.83995903487516 L4.0131257499865285,69.43899198533092 z" style="color: rgb(214, 27, 65);" class="" fill-opacity="1" transform="rotate(13.602707862854004 25.800834655761705,74.63947296142578) "/>
    <path fill="#ffffff" stroke="none" stroke-width="1" stroke-linejoin="round" stroke-dashoffset="" fill-rule="nonzero" marker-start="" marker-mid="" marker-end="" d="M20.682996445523997,33.943583515087596 L33.11407146550346,33.943583515087596 L36.95536930201882,21.37444094411582 L40.796669322745345,33.943583515087596 L53.22774215851322,33.943583515087596 L43.17080961461326,41.71165190963208 L47.01230621434095,54.2807944806041 L36.95536930201882,46.51251453691316 L26.89843457390758,54.2807944806041 L30.73993226574052,41.71165190963208 L20.682996445523997,33.943583515087596 z" style="color: rgb(214, 27, 65);" class="" fill-opacity="1" transform="rotate(25.44801139831543 36.95536804199216,37.82762908935547) " id="svg_11"/>
    <path fill="#ffffff" stroke="none" stroke-width="1" stroke-linejoin="round" stroke-dashoffset="" fill-rule="nonzero" marker-start="" marker-mid="" marker-end="" d="M50.25199814718306,16.381575719489902 L58.5969698420098,16.381575719489902 L61.17563030907317,7.943919377265146 L63.754292242395906,16.381575719489902 L72.099262470963,16.381575719489902 L65.34805090794518,21.596274429920413 L67.9268448046096,30.03393077214531 L61.17563030907317,24.81909004892539 L54.424417279795904,30.03393077214531 L57.003211909589794,21.596274429920413 L50.25199814718306,16.381575719489902 z" style="color: rgb(214, 27, 65);" class="" fill-opacity="1" transform="rotate(50.31439208984375 61.17562866210937,18.988924026489258) " id="svg_12"/>
  </g>
</svg>
